<mxfile host="app.diagrams.net" modified="2022-08-23T07:45:18.803Z" agent="5.0 (Macintosh; Intel Mac OS X 10_15_7) AppleWebKit/537.36 (KHTML, like Gecko) Chrome/103.0.0.0 Safari/537.36" etag="Dga9L_c1xLhMX_CaigDT" version="20.2.6" type="github">
  <diagram id="C5RBs43oDa-KdzZeNtuy" name="Page-1">
    <mxGraphModel dx="1010" dy="596" grid="1" gridSize="10" guides="1" tooltips="1" connect="1" arrows="1" fold="1" page="1" pageScale="1" pageWidth="827" pageHeight="1169" math="0" shadow="0">
      <root>
        <mxCell id="WIyWlLk6GJQsqaUBKTNV-0" />
        <mxCell id="WIyWlLk6GJQsqaUBKTNV-1" parent="WIyWlLk6GJQsqaUBKTNV-0" />
        <mxCell id="rT6-VUmv3mNHLw1qlS4B-0" value="" style="rounded=0;whiteSpace=wrap;html=1;dashed=1;" vertex="1" parent="WIyWlLk6GJQsqaUBKTNV-1">
          <mxGeometry x="450" y="39" width="540" height="80" as="geometry" />
        </mxCell>
        <mxCell id="rT6-VUmv3mNHLw1qlS4B-1" value="实时监控大屏前端服务" style="rounded=0;whiteSpace=wrap;html=1;" vertex="1" parent="WIyWlLk6GJQsqaUBKTNV-1">
          <mxGeometry x="460" y="49" width="520" height="60" as="geometry" />
        </mxCell>
        <mxCell id="rT6-VUmv3mNHLw1qlS4B-3" value="" style="rounded=0;whiteSpace=wrap;html=1;dashed=1;" vertex="1" parent="WIyWlLk6GJQsqaUBKTNV-1">
          <mxGeometry x="450" y="130" width="540" height="340" as="geometry" />
        </mxCell>
        <mxCell id="rT6-VUmv3mNHLw1qlS4B-4" value="WebSocket Server" style="rounded=0;whiteSpace=wrap;html=1;" vertex="1" parent="WIyWlLk6GJQsqaUBKTNV-1">
          <mxGeometry x="730" y="166" width="250" height="60" as="geometry" />
        </mxCell>
        <mxCell id="rT6-VUmv3mNHLw1qlS4B-5" value="API Server" style="rounded=0;whiteSpace=wrap;html=1;" vertex="1" parent="WIyWlLk6GJQsqaUBKTNV-1">
          <mxGeometry x="460" y="166" width="250" height="60" as="geometry" />
        </mxCell>
        <mxCell id="rT6-VUmv3mNHLw1qlS4B-7" value="" style="rounded=0;whiteSpace=wrap;html=1;" vertex="1" parent="WIyWlLk6GJQsqaUBKTNV-1">
          <mxGeometry x="460" y="252" width="340" height="184" as="geometry" />
        </mxCell>
        <mxCell id="rT6-VUmv3mNHLw1qlS4B-8" value="订单数据引擎" style="rounded=0;whiteSpace=wrap;html=1;" vertex="1" parent="WIyWlLk6GJQsqaUBKTNV-1">
          <mxGeometry x="486" y="282" width="120" height="60" as="geometry" />
        </mxCell>
        <mxCell id="rT6-VUmv3mNHLw1qlS4B-9" value="统计数据引擎" style="rounded=0;whiteSpace=wrap;html=1;" vertex="1" parent="WIyWlLk6GJQsqaUBKTNV-1">
          <mxGeometry x="641" y="283" width="120" height="60" as="geometry" />
        </mxCell>
        <mxCell id="rT6-VUmv3mNHLw1qlS4B-10" value="车辆数据引擎" style="rounded=0;whiteSpace=wrap;html=1;" vertex="1" parent="WIyWlLk6GJQsqaUBKTNV-1">
          <mxGeometry x="486" y="359" width="120" height="60" as="geometry" />
        </mxCell>
        <mxCell id="rT6-VUmv3mNHLw1qlS4B-12" value="车辆详情数据引擎" style="rounded=0;whiteSpace=wrap;html=1;" vertex="1" parent="WIyWlLk6GJQsqaUBKTNV-1">
          <mxGeometry x="641" y="359" width="120" height="60" as="geometry" />
        </mxCell>
        <mxCell id="rT6-VUmv3mNHLw1qlS4B-13" value="" style="rounded=0;whiteSpace=wrap;html=1;align=left;" vertex="1" parent="WIyWlLk6GJQsqaUBKTNV-1">
          <mxGeometry x="830" y="252" width="140" height="184" as="geometry" />
        </mxCell>
        <mxCell id="rT6-VUmv3mNHLw1qlS4B-14" value="Pull Module" style="rounded=0;whiteSpace=wrap;html=1;" vertex="1" parent="WIyWlLk6GJQsqaUBKTNV-1">
          <mxGeometry x="855" y="292" width="90" height="40" as="geometry" />
        </mxCell>
        <mxCell id="rT6-VUmv3mNHLw1qlS4B-15" value="Push Module" style="rounded=0;whiteSpace=wrap;html=1;" vertex="1" parent="WIyWlLk6GJQsqaUBKTNV-1">
          <mxGeometry x="855" y="376" width="90" height="40" as="geometry" />
        </mxCell>
        <mxCell id="rT6-VUmv3mNHLw1qlS4B-16" value="" style="rounded=0;whiteSpace=wrap;html=1;dashed=1;" vertex="1" parent="WIyWlLk6GJQsqaUBKTNV-1">
          <mxGeometry x="450" y="483" width="540" height="127" as="geometry" />
        </mxCell>
        <mxCell id="rT6-VUmv3mNHLw1qlS4B-19" value="MySQL" style="shape=cylinder3;whiteSpace=wrap;html=1;boundedLbl=1;backgroundOutline=1;size=15;" vertex="1" parent="WIyWlLk6GJQsqaUBKTNV-1">
          <mxGeometry x="510" y="519" width="60" height="80" as="geometry" />
        </mxCell>
        <mxCell id="rT6-VUmv3mNHLw1qlS4B-20" value="Redis" style="shape=cylinder3;whiteSpace=wrap;html=1;boundedLbl=1;backgroundOutline=1;size=15;" vertex="1" parent="WIyWlLk6GJQsqaUBKTNV-1">
          <mxGeometry x="680" y="519" width="60" height="80" as="geometry" />
        </mxCell>
        <mxCell id="rT6-VUmv3mNHLw1qlS4B-21" value="TSDB" style="shape=cylinder3;whiteSpace=wrap;html=1;boundedLbl=1;backgroundOutline=1;size=15;" vertex="1" parent="WIyWlLk6GJQsqaUBKTNV-1">
          <mxGeometry x="850" y="519" width="60" height="80" as="geometry" />
        </mxCell>
        <mxCell id="rT6-VUmv3mNHLw1qlS4B-43" style="edgeStyle=orthogonalEdgeStyle;rounded=0;orthogonalLoop=1;jettySize=auto;html=1;exitX=0;exitY=0.5;exitDx=0;exitDy=0;" edge="1" parent="WIyWlLk6GJQsqaUBKTNV-1" source="rT6-VUmv3mNHLw1qlS4B-22" target="rT6-VUmv3mNHLw1qlS4B-14">
          <mxGeometry relative="1" as="geometry">
            <Array as="points">
              <mxPoint x="1230" y="312" />
            </Array>
          </mxGeometry>
        </mxCell>
        <mxCell id="rT6-VUmv3mNHLw1qlS4B-44" style="edgeStyle=orthogonalEdgeStyle;rounded=0;orthogonalLoop=1;jettySize=auto;html=1;entryX=0.5;entryY=0;entryDx=0;entryDy=0;entryPerimeter=0;" edge="1" parent="WIyWlLk6GJQsqaUBKTNV-1" target="rT6-VUmv3mNHLw1qlS4B-23">
          <mxGeometry relative="1" as="geometry">
            <mxPoint x="1120" y="395" as="targetPoint" />
            <mxPoint x="1230" y="395" as="sourcePoint" />
            <Array as="points">
              <mxPoint x="1230" y="396" />
            </Array>
          </mxGeometry>
        </mxCell>
        <mxCell id="rT6-VUmv3mNHLw1qlS4B-45" value="消息&lt;br&gt;通知" style="edgeLabel;html=1;align=center;verticalAlign=middle;resizable=0;points=[];" vertex="1" connectable="0" parent="rT6-VUmv3mNHLw1qlS4B-44">
          <mxGeometry x="0.1478" y="-3" relative="1" as="geometry">
            <mxPoint as="offset" />
          </mxGeometry>
        </mxCell>
        <mxCell id="rT6-VUmv3mNHLw1qlS4B-22" value="" style="rounded=0;whiteSpace=wrap;html=1;dashed=1;" vertex="1" parent="WIyWlLk6GJQsqaUBKTNV-1">
          <mxGeometry x="1230" y="39" width="120" height="571" as="geometry" />
        </mxCell>
        <mxCell id="rT6-VUmv3mNHLw1qlS4B-23" value="" style="shape=cylinder3;whiteSpace=wrap;html=1;boundedLbl=1;backgroundOutline=1;size=15;direction=south;" vertex="1" parent="WIyWlLk6GJQsqaUBKTNV-1">
          <mxGeometry x="1020" y="381" width="96" height="30" as="geometry" />
        </mxCell>
        <mxCell id="rT6-VUmv3mNHLw1qlS4B-24" style="edgeStyle=orthogonalEdgeStyle;rounded=0;orthogonalLoop=1;jettySize=auto;html=1;exitX=1;exitY=0.5;exitDx=0;exitDy=0;exitPerimeter=0;" edge="1" parent="WIyWlLk6GJQsqaUBKTNV-1" source="rT6-VUmv3mNHLw1qlS4B-23" target="rT6-VUmv3mNHLw1qlS4B-23">
          <mxGeometry relative="1" as="geometry" />
        </mxCell>
        <mxCell id="rT6-VUmv3mNHLw1qlS4B-25" value="" style="endArrow=classic;html=1;rounded=0;entryX=1;entryY=0.5;entryDx=0;entryDy=0;exitX=0.5;exitY=1;exitDx=0;exitDy=0;exitPerimeter=0;" edge="1" parent="WIyWlLk6GJQsqaUBKTNV-1" source="rT6-VUmv3mNHLw1qlS4B-23" target="rT6-VUmv3mNHLw1qlS4B-15">
          <mxGeometry width="50" height="50" relative="1" as="geometry">
            <mxPoint x="990" y="370" as="sourcePoint" />
            <mxPoint x="1040" y="320" as="targetPoint" />
          </mxGeometry>
        </mxCell>
        <mxCell id="rT6-VUmv3mNHLw1qlS4B-32" value="DataManager" style="text;html=1;strokeColor=none;fillColor=none;align=center;verticalAlign=middle;whiteSpace=wrap;rounded=0;" vertex="1" parent="WIyWlLk6GJQsqaUBKTNV-1">
          <mxGeometry x="840" y="253" width="60" height="30" as="geometry" />
        </mxCell>
        <mxCell id="rT6-VUmv3mNHLw1qlS4B-33" value="DataServer" style="text;html=1;strokeColor=none;fillColor=none;align=center;verticalAlign=middle;whiteSpace=wrap;rounded=0;" vertex="1" parent="WIyWlLk6GJQsqaUBKTNV-1">
          <mxGeometry x="464" y="252" width="60" height="30" as="geometry" />
        </mxCell>
        <mxCell id="rT6-VUmv3mNHLw1qlS4B-35" value="实时监控大屏后端服务" style="text;html=1;strokeColor=none;fillColor=none;align=center;verticalAlign=middle;whiteSpace=wrap;rounded=0;" vertex="1" parent="WIyWlLk6GJQsqaUBKTNV-1">
          <mxGeometry x="450" y="130" width="140" height="30" as="geometry" />
        </mxCell>
        <mxCell id="rT6-VUmv3mNHLw1qlS4B-37" value="&amp;nbsp; &amp;nbsp;通用存储服务和中间件" style="text;html=1;strokeColor=none;fillColor=none;align=left;verticalAlign=middle;whiteSpace=wrap;rounded=0;" vertex="1" parent="WIyWlLk6GJQsqaUBKTNV-1">
          <mxGeometry x="450" y="483" width="150" height="30" as="geometry" />
        </mxCell>
        <mxCell id="rT6-VUmv3mNHLw1qlS4B-38" value="依赖数据源" style="text;html=1;strokeColor=none;fillColor=none;align=center;verticalAlign=middle;whiteSpace=wrap;rounded=0;" vertex="1" parent="WIyWlLk6GJQsqaUBKTNV-1">
          <mxGeometry x="1230" y="39" width="80" height="30" as="geometry" />
        </mxCell>
        <mxCell id="rT6-VUmv3mNHLw1qlS4B-39" value="订单服务" style="rounded=0;whiteSpace=wrap;html=1;" vertex="1" parent="WIyWlLk6GJQsqaUBKTNV-1">
          <mxGeometry x="1245.5" y="100" width="89" height="70" as="geometry" />
        </mxCell>
        <mxCell id="rT6-VUmv3mNHLw1qlS4B-40" value="运力资源" style="rounded=0;whiteSpace=wrap;html=1;" vertex="1" parent="WIyWlLk6GJQsqaUBKTNV-1">
          <mxGeometry x="1245.5" y="233" width="89" height="70" as="geometry" />
        </mxCell>
        <mxCell id="rT6-VUmv3mNHLw1qlS4B-41" value="调度" style="rounded=0;whiteSpace=wrap;html=1;" vertex="1" parent="WIyWlLk6GJQsqaUBKTNV-1">
          <mxGeometry x="1245.5" y="346" width="89" height="70" as="geometry" />
        </mxCell>
        <mxCell id="rT6-VUmv3mNHLw1qlS4B-42" value="数据服务" style="rounded=0;whiteSpace=wrap;html=1;" vertex="1" parent="WIyWlLk6GJQsqaUBKTNV-1">
          <mxGeometry x="1245.5" y="460" width="89" height="70" as="geometry" />
        </mxCell>
      </root>
    </mxGraphModel>
  </diagram>
</mxfile>
